Simulation
nRows=27
nColumns=15
endheader
time  TH_x TH_y TH_z SC_y  SC_z  SC_x  AC_y  AC_z  AC_x  GH_y  GH_z  GH_yy  EL_x  PS_y
1.424999999999999  0.000000  0.000000  0.000000  -29.454217708846997  5.055927830083475  12.485837802921619  53.886593848194295  26.89829673505981  15.425621175038621  40.5691063855303  48.01210078173999  -36.36589536963325  24.801147062207253  120.000000
1.453499999999999  0.000000  0.000000  0.000000  -29.330574524140157  5.1488301738439475  11.42156447128656  54.170127475086936  26.825698650921066  14.732838517509657  41.67824167179581  47.81507070642288  -36.84067759874405  24.60937828508341  120.000000
1.4819999999999989  0.000000  0.000000  0.000000  -29.2141703590641  5.2225791908669725  9.93967274954546  54.3943908563018  26.85853449332665  14.248118261162766  42.85851772818986  47.53529221564556  -37.22624225377449  24.407555947174135  120.000000
1.5104999999999988  0.000000  0.000000  0.000000  -29.09897478394987  5.260068884102374  8.042706995193909  54.52993900235073  27.001682409221925  14.031733189502448  44.072947100787985  47.126090198685255  -37.47721550638445  24.1948424066534  120.000000
1.538999999999999  0.000000  0.000000  0.000000  -28.966283484573918  5.247163773142463  5.771209526140422  54.54744637058526  27.252428735506985  14.111533720072467  45.28380798096467  46.52334172957073  -37.55743535584927  23.967657465606134  120.000000
1.567499999999999  0.000000  0.000000  0.000000  -28.78904698265281  5.1781185098559  3.2111185884735454  54.42532780700083  27.59312037228695  14.473809893508543  46.45867765658142  45.65667684424706  -37.44602085721387  23.721531764041018  120.000000
1.595999999999999  0.000000  0.000000  0.000000  -28.54113657374248  5.058825848575257  0.4850874579966546  54.155597099720936  27.99333423874829  15.068995040853114  47.574571433859255  44.46889189484975  -37.140378129602915  23.454468682926887  120.000000
1.624499999999999  0.000000  0.000000  0.000000  -28.206203832727574  4.90402537779122  -2.2710649059285704  53.749201570471186  28.419158603807777  15.82561319360277  48.62072927641945  42.935589338296936  -36.65725054434674  23.168296542416734  120.000000
1.652999999999999  0.000000  0.000000  0.000000  -27.782637371807535  4.730941356397753  -4.935490818200455  53.234078560280665  28.838651040771214  16.666484325577592  49.59758846509517  41.07374797437188  -36.02904172704378  22.86860667860607  120.000000
1.6814999999999989  0.000000  0.000000  0.000000  -27.2868862975069  4.552234905501715  -7.4180676383442625  52.64737001276304  29.222263327743214  17.52058742676166  50.51322670935083  38.935735471797166  -35.29767951565744  22.56238952829112  120.000000
1.7099999999999989  0.000000  0.000000  0.000000  -26.75278416769999  4.371607443115443  -9.665547064850768  52.029118439153955  29.543517273215585  18.32874338633838  51.37845182334969  36.59510389453496  -34.507026876110515  22.254259122310657  120.000000
1.7384999999999988  0.000000  0.000000  0.000000  -26.223275555019686  4.182514396011744  -11.656240707099855  51.415864586371406  29.781168244011187  19.045656965724326  52.202845249066186  34.130796663433976  -33.6946234906375  21.945633804518245  120.000000
1.7669999999999988  0.000000  0.000000  0.000000  -25.741313622472802  3.9731750888341977  -13.38921933289495  50.83595899267986  29.92046373182419  19.641195225854723  52.99198591548603  31.61469909505071  -32.8836271134384  21.636131926438186  120.000000
1.7954999999999988  0.000000  0.000000  0.000000  -25.342407477073063  3.73357633638686  -14.873729261537989  50.30823034241974  29.955863112260946  20.099205979473272  53.74599308437561  29.103729765644516  -32.078303622317485  21.326004279255038  120.000000
1.8239999999999987  0.000000  0.000000  0.000000  -25.04821967774388  3.4596593050455886  -16.121214339077643  49.84122315477038  29.892097469450693  20.415670141766885  54.45950351173791  26.635480476851484  -31.26253591955632  21.01829201799439  120.000000
1.8524999999999987  0.000000  0.000000  0.000000  -24.863296882947424  3.1559705381990955  -17.14181145863099  49.43516715327696  29.742717308955992  20.59680301350434  55.1234789166401  24.22798299194813  -30.403954577148756  20.719530678793387  120.000000
1.8809999999999987  0.000000  0.000000  0.000000  -24.77548163870141  2.83575271856141  -17.94507657861677  49.086260677769566  29.527267329455576  20.6561508069411  55.72771249133236  21.88425085626239  -29.462504357302326  20.439395345277987  120.000000
1.9094999999999986  0.000000  0.000000  0.000000  -24.759429519389528  2.5181508105323585  -18.543528199465673  48.79130686167894  29.266923531837215  20.612325200309012  56.26249333721261  19.6003877346408  -28.402039957069604  20.188781930541925  120.000000
1.9379999999999986  0.000000  0.000000  0.000000  -24.78303830716313  2.2233741018817317  -18.9562041835916  48.54998458418968  28.979655906591223  20.48808112794912  56.71842646640139  17.37381899047417  -27.200624337108202  19.977157125667038  120.000000
1.9664999999999986  0.000000  0.000000  0.000000  -24.814762658961882  1.967456095924767  -19.210433312352556  48.36250010322563  28.675667031415816  20.309579375016956  57.0852989806214  15.209460886562216  -25.856228069800615  19.810392707987873  120.000000
1.9949999999999986  0.000000  0.000000  0.000000  -24.829883539103037  1.7594330853716331  -19.341433144391576  48.22420199681895  28.355833275300046  20.105780266515048  57.35046322659142  13.120739596578124  -24.387023845422426  19.68865530347994  120.000000
2.0234999999999985  0.000000  0.000000  0.000000  -24.814892170902016  1.6021031824409013  -19.39013609151281  48.11991485606323  28.016145430223567  19.90570407416179  57.4996574521228  11.127246312112224  -22.824011670057146  19.607531704296203  120.000000
2.0519999999999987  0.000000  0.000000  0.000000  -24.7655818605921  1.4972090158735898  -19.39872471066724  48.02129180917905  27.655396685762284  19.733888601296567  57.52067893138968  9.250381830294119  -21.200551945265392  19.56383285601895  120.000000
2.0804999999999985  0.000000  0.000000  0.000000  -24.682650813125793  1.4495710645482212  -19.398135994795332  47.89470854290948  27.278553931859516  19.60417333150783  57.407777823287084  7.504062874145105  -19.542977982686583  19.557720408493942  120.000000
2.1089999999999987  0.000000  0.000000  0.000000  -24.570456463653294  1.4650416869882783  -19.398724476260107  47.712035647745374  26.89569111438216  19.5156003167146  57.16511288612069  5.888371988583237  -17.866550213410257  19.592394360542766  120.000000
2.1374999999999984  0.000000  0.000000  0.000000  -24.43476635366649  1.5469597534941366  -19.398724265533914  47.457813995317956  26.519368096583243  19.45783741237152  56.8060023026466  4.395144747936566  -16.17654692424221  19.671038618974254  120.000000
2.1659999999999986  0.000000  0.000000  0.000000  -24.280233877774705  1.6909795574047335  -19.391690129398157  47.13888736427033  26.158804336310485  19.41679441613765  56.35105168485225  3.0166958842121967  -14.472456582420955  19.793438933344163  120.000000
